<?xml version="1.0" standalone="no"?><!-- Generator: Gravit.io --><svg xmlns="http://www.w3.org/2000/svg" xmlns:xlink="http://www.w3.org/1999/xlink" style="isolation:isolate" viewBox="0 0 830.336 134.189" width="830.336" height="134.189"><defs><clipPath id="_clipPath_kDtnoPlSpyx4vxmc6ul6BfkMaP6VDG6G"><rect width="830.336" height="134.189"/></clipPath></defs><g clip-path="url(#_clipPath_kDtnoPlSpyx4vxmc6ul6BfkMaP6VDG6G)"><g id="Group"><g id="Group"><g id="Paomedia-Small-N-Flat-Life-buoy"><g id="Group"><path d=" M 633.537 0 C 596.482 0 566.443 30.039 566.443 67.095 C 566.443 104.148 596.482 134.189 633.537 134.189 C 670.59 134.189 700.632 104.148 700.632 67.095 C 700.632 30.039 670.59 0 633.537 0 Z  M 633.537 39.138 C 648.974 39.138 661.493 51.655 661.493 67.095 C 661.493 82.532 648.974 95.051 633.537 95.051 C 618.098 95.051 605.581 82.532 605.581 67.095 C 605.581 51.655 618.098 39.138 633.537 39.138 Z " fill="rgb(236,240,241)"/><path d=" M 566.967 58.708 C 566.619 61.503 566.443 64.299 566.443 67.095 C 566.443 103.997 596.482 134.189 633.537 134.189 C 670.59 134.189 700.632 103.997 700.632 67.095 C 700.632 64.299 700.453 61.503 700.106 58.708 C 695.952 91.696 667.733 117.415 633.537 117.415 C 599.342 117.415 571.122 91.696 566.968 58.708 L 566.967 58.708 Z " fill="rgb(189,195,199)"/><path d=" M 633.537 22.365 C 618.098 22.365 605.581 34.881 605.581 50.321 C 605.581 53.274 606.13 56.035 606.979 58.708 C 610.567 47.409 621.05 39.138 633.537 39.138 C 646.022 39.138 656.506 47.409 660.095 58.708 C 660.945 56.035 661.493 53.274 661.493 50.321 C 661.493 34.881 648.974 22.365 633.537 22.365 Z " fill="rgb(189,195,199)"/><path d=" M 680.973 19.569 C 674.426 12.86 666.933 7.828 658.86 5.032 L 644.032 41.375 C 647.398 42.493 650.568 44.171 653.297 46.966 C 656.031 49.762 657.988 53.117 659.352 56.471 L 695.678 41.375 C 692.401 33.547 687.526 26.279 680.973 19.569 Z  M 608.203 5.032 C 600.127 7.828 592.639 12.86 586.088 19.569 C 579.538 26.279 574.661 33.547 571.386 41.375 L 607.71 56.471 C 609.074 53.117 611.034 49.762 613.763 46.966 C 616.493 44.171 619.664 42.493 623.032 41.375 L 608.203 5.032 Z  M 695.678 92.255 L 659.352 77.159 C 657.988 80.513 656.031 83.868 653.297 86.664 C 650.568 89.459 647.398 91.137 644.032 92.814 L 658.86 129.157 C 666.933 125.802 674.426 120.77 680.973 114.62 C 687.526 107.91 692.401 100.083 695.678 92.255 Z  M 607.706 77.159 L 571.382 92.255 C 574.658 100.083 579.534 107.91 586.085 114.62 C 592.636 120.77 600.123 125.802 608.201 129.157 L 623.028 92.814 C 619.661 91.137 616.49 89.459 613.76 86.664 C 611.031 83.868 609.071 80.513 607.706 77.159 Z " fill="rgb(231,76,60)"/><path d=" M 579.023 88.9 L 571.335 92.255 C 574.61 100.083 579.461 107.91 586.012 114.62 C 592.562 120.77 600.125 125.802 608.202 129.157 L 614.142 114.62 C 599.79 110.147 587.542 101.201 579.023 88.9 Z  M 688.051 88.9 C 679.53 101.201 667.286 110.147 652.933 114.62 L 658.871 129.157 C 666.95 125.802 674.336 120.77 680.889 114.62 C 687.436 107.91 692.463 100.083 695.739 92.255 L 688.051 88.9 Z " fill="rgb(192,57,43)"/><path d=" M 617.462 27.397 C 610.363 32.429 605.581 40.816 605.581 50.321 C 605.581 51.998 605.733 53.676 606.106 55.912 L 607.678 56.471 C 609.043 53.117 611.064 49.762 613.793 46.966 C 616.523 44.171 619.688 42.493 623.054 40.816 L 617.462 27.397 L 617.462 27.397 Z  M 649.612 27.397 L 644.021 40.816 C 647.387 42.493 650.551 44.171 653.28 46.966 C 656.008 49.762 658.032 53.117 659.397 56.471 L 660.968 55.912 C 661.342 53.676 661.493 51.998 661.493 50.321 C 661.493 40.816 656.713 32.429 649.612 27.397 L 649.612 27.397 Z " fill="rgb(192,57,43)"/></g></g><path d=" M 304.636 134.189 L 304.636 106.402 L 313.108 106.402 L 313.108 27.787 L 304.636 27.787 L 304.636 0 L 382.405 0 L 382.405 0 Q 403.584 0 415.444 8.641 L 415.444 8.641 L 415.444 8.641 Q 427.304 17.282 427.304 33.378 L 427.304 33.378 L 427.304 33.378 Q 427.304 43.374 422.56 50.236 L 422.56 50.236 L 422.56 50.236 Q 417.816 57.098 411.463 60.571 L 411.463 60.571 L 411.463 60.571 Q 405.109 64.045 399.179 65.231 L 399.179 65.231 L 399.179 69.297 L 399.179 69.297 Q 411.208 70.483 420.866 76.922 L 420.866 76.922 L 420.866 76.922 Q 430.523 83.36 430.523 99.964 L 430.523 99.964 L 430.523 99.964 Q 430.523 117.754 417.138 125.972 L 417.138 125.972 L 417.138 125.972 Q 403.753 134.189 382.405 134.189 L 382.405 134.189 L 304.636 134.189 Z  M 360.549 55.573 L 369.698 55.573 L 369.698 55.573 Q 374.611 55.573 377.068 52.947 L 377.068 52.947 L 377.068 52.947 Q 379.525 50.321 379.525 44.73 L 379.525 44.73 L 379.525 38.63 L 379.525 38.63 Q 379.525 33.039 377.068 30.413 L 377.068 30.413 L 377.068 30.413 Q 374.611 27.787 369.698 27.787 L 369.698 27.787 L 360.549 27.787 L 360.549 55.573 Z  M 360.549 106.402 L 370.884 106.402 L 370.884 106.402 Q 375.797 106.402 378.254 103.776 L 378.254 103.776 L 378.254 103.776 Q 380.711 101.15 380.711 95.559 L 380.711 95.559 L 380.711 88.104 L 380.711 88.104 Q 380.711 82.513 378.254 79.887 L 378.254 79.887 L 378.254 79.887 Q 375.797 77.26 370.884 77.26 L 370.884 77.26 L 360.549 77.26 L 360.549 106.402 Z  M 499.312 134.189 L 499.312 134.189 Q 472.712 134.189 458.225 122.498 L 458.225 122.498 L 458.225 122.498 Q 443.739 110.808 443.739 84.546 L 443.739 84.546 L 443.739 27.787 L 435.268 27.787 L 435.268 0 L 497.957 0 L 497.957 27.787 L 491.18 27.787 L 491.18 93.187 L 491.18 93.187 Q 491.18 98.778 493.636 101.404 L 493.636 101.404 L 493.636 101.404 Q 496.093 104.03 501.007 104.03 L 501.007 104.03 L 501.007 104.03 Q 505.92 104.03 508.377 101.404 L 508.377 101.404 L 508.377 101.404 Q 510.834 98.778 510.834 93.187 L 510.834 93.187 L 510.834 27.787 L 504.056 27.787 L 504.056 0 L 562.171 0 L 562.171 27.787 L 553.7 27.787 L 553.7 84.546 L 553.7 84.546 Q 553.7 110.808 539.637 122.498 L 539.637 122.498 L 539.637 122.498 Q 525.574 134.189 499.312 134.189 L 499.312 134.189 Z " fill-rule="evenodd" fill="rgb(192,57,43)"/><path d=" M 777.385 28.287 L 777.385 0 L 830.336 0 L 830.336 28.287 L 823.437 28.287 L 790.149 87.965 L 790.149 105.902 L 798.773 105.902 L 798.773 134.189 L 733.23 134.189 L 733.23 105.902 L 741.854 105.902 L 741.854 87.965 L 707.531 28.287 L 700.632 28.287 L 700.632 0 L 767.381 0 L 767.381 28.287 L 761.345 28.287 L 771.521 55.021 L 773.246 55.021 L 783.422 28.287 L 777.385 28.287 Z " fill="rgb(192,57,43)"/></g><line x1="281.906" y1="1.537" x2="281.906" y2="130.803" vector-effect="non-scaling-stroke" stroke-width="2" stroke="rgb(236,240,241)" stroke-linejoin="miter" stroke-linecap="square" stroke-miterlimit="3"/><path d=" M 23.896 134.189 L 23.896 134.189 Q 16.937 134.189 10.439 132.303 L 10.439 132.303 L 10.439 132.303 Q 3.941 130.416 0 127.398 L 0 127.398 L 4.612 117.168 L 4.612 117.168 Q 8.385 119.935 13.583 121.612 L 13.583 121.612 L 13.583 121.612 Q 18.781 123.289 23.98 123.289 L 23.98 123.289 L 23.98 123.289 Q 29.765 123.289 32.532 121.57 L 32.532 121.57 L 32.532 121.57 Q 35.299 119.852 35.299 117.001 L 35.299 117.001 L 35.299 117.001 Q 35.299 114.905 33.664 113.521 L 33.664 113.521 L 33.664 113.521 Q 32.029 112.138 29.472 111.299 L 29.472 111.299 L 29.472 111.299 Q 26.914 110.461 22.554 109.455 L 22.554 109.455 L 22.554 109.455 Q 15.847 107.862 11.571 106.269 L 11.571 106.269 L 11.571 106.269 Q 7.295 104.676 4.234 101.154 L 4.234 101.154 L 4.234 101.154 Q 1.174 97.632 1.174 91.763 L 1.174 91.763 L 1.174 91.763 Q 1.174 86.649 3.941 82.498 L 3.941 82.498 L 3.941 82.498 Q 6.708 78.348 12.283 75.917 L 12.283 75.917 L 12.283 75.917 Q 17.859 73.485 25.908 73.485 L 25.908 73.485 L 25.908 73.485 Q 31.526 73.485 36.892 74.827 L 36.892 74.827 L 36.892 74.827 Q 42.258 76.168 46.283 78.683 L 46.283 78.683 L 42.09 88.996 L 42.09 88.996 Q 33.957 84.385 25.824 84.385 L 25.824 84.385 L 25.824 84.385 Q 20.123 84.385 17.398 86.23 L 17.398 86.23 L 17.398 86.23 Q 14.673 88.074 14.673 91.093 L 14.673 91.093 L 14.673 91.093 Q 14.673 94.111 17.817 95.578 L 17.817 95.578 L 17.817 95.578 Q 20.961 97.046 27.417 98.471 L 27.417 98.471 L 27.417 98.471 Q 34.125 100.064 38.401 101.657 L 38.401 101.657 L 38.401 101.657 Q 42.677 103.25 45.738 106.688 L 45.738 106.688 L 45.738 106.688 Q 48.798 110.125 48.798 115.995 L 48.798 115.995 L 48.798 115.995 Q 48.798 121.025 45.989 125.176 L 45.989 125.176 L 45.989 125.176 Q 43.18 129.326 37.563 131.758 L 37.563 131.758 L 37.563 131.758 Q 31.945 134.189 23.896 134.189 L 23.896 134.189 Z  M 114.952 87.403 L 114.952 87.403 Q 123.421 87.403 128.409 92.392 L 128.409 92.392 L 128.409 92.392 Q 133.398 97.381 133.398 107.359 L 133.398 107.359 L 133.398 133.183 L 120.318 133.183 L 120.318 109.371 L 120.318 109.371 Q 120.318 104.005 118.096 101.364 L 118.096 101.364 L 118.096 101.364 Q 115.875 98.722 111.766 98.722 L 111.766 98.722 L 111.766 98.722 Q 107.155 98.722 104.472 101.699 L 104.472 101.699 L 104.472 101.699 Q 101.788 104.676 101.788 110.545 L 101.788 110.545 L 101.788 133.183 L 88.709 133.183 L 88.709 109.371 L 88.709 109.371 Q 88.709 98.722 80.156 98.722 L 80.156 98.722 L 80.156 98.722 Q 75.629 98.722 72.946 101.699 L 72.946 101.699 L 72.946 101.699 Q 70.263 104.676 70.263 110.545 L 70.263 110.545 L 70.263 133.183 L 57.183 133.183 L 57.183 88.074 L 69.676 88.074 L 69.676 93.273 L 69.676 93.273 Q 72.191 90.422 75.838 88.913 L 75.838 88.913 L 75.838 88.913 Q 79.486 87.403 83.846 87.403 L 83.846 87.403 L 83.846 87.403 Q 88.625 87.403 92.482 89.29 L 92.482 89.29 L 92.482 89.29 Q 96.338 91.176 98.686 94.782 L 98.686 94.782 L 98.686 94.782 Q 101.453 91.26 105.687 89.332 L 105.687 89.332 L 105.687 89.332 Q 109.921 87.403 114.952 87.403 L 114.952 87.403 Z  M 163.331 87.403 L 163.331 87.403 Q 173.812 87.403 179.429 92.392 L 179.429 92.392 L 179.429 92.392 Q 185.047 97.381 185.047 107.442 L 185.047 107.442 L 185.047 133.183 L 172.806 133.183 L 172.806 127.565 L 172.806 127.565 Q 169.116 133.854 159.055 133.854 L 159.055 133.854 L 159.055 133.854 Q 153.857 133.854 150.042 132.093 L 150.042 132.093 L 150.042 132.093 Q 146.227 130.332 144.214 127.23 L 144.214 127.23 L 144.214 127.23 Q 142.202 124.128 142.202 120.187 L 142.202 120.187 L 142.202 120.187 Q 142.202 113.899 146.939 110.293 L 146.939 110.293 L 146.939 110.293 Q 151.677 106.688 161.57 106.688 L 161.57 106.688 L 171.967 106.688 L 171.967 106.688 Q 171.967 102.412 169.368 100.106 L 169.368 100.106 L 169.368 100.106 Q 166.769 97.8 161.57 97.8 L 161.57 97.8 L 161.57 97.8 Q 157.965 97.8 154.485 98.932 L 154.485 98.932 L 154.485 98.932 Q 151.006 100.064 148.574 101.992 L 148.574 101.992 L 143.879 92.853 L 143.879 92.853 Q 147.568 90.254 152.725 88.829 L 152.725 88.829 L 152.725 88.829 Q 157.881 87.403 163.331 87.403 L 163.331 87.403 Z  M 162.325 125.05 L 162.325 125.05 Q 165.679 125.05 168.278 123.499 L 168.278 123.499 L 168.278 123.499 Q 170.877 121.948 171.967 118.929 L 171.967 118.929 L 171.967 114.318 L 162.996 114.318 L 162.996 114.318 Q 154.947 114.318 154.947 119.6 L 154.947 119.6 L 154.947 119.6 Q 154.947 122.115 156.917 123.583 L 156.917 123.583 L 156.917 123.583 Q 158.887 125.05 162.325 125.05 L 162.325 125.05 Z  M 209.362 94.027 L 209.362 94.027 Q 211.71 90.757 215.693 89.08 L 215.693 89.08 L 215.693 89.08 Q 219.675 87.403 224.874 87.403 L 224.874 87.403 L 224.874 99.477 L 224.874 99.477 Q 222.694 99.309 221.939 99.309 L 221.939 99.309 L 221.939 99.309 Q 216.321 99.309 213.135 102.454 L 213.135 102.454 L 213.135 102.454 Q 209.949 105.598 209.949 111.886 L 209.949 111.886 L 209.949 133.183 L 196.869 133.183 L 196.869 88.074 L 209.362 88.074 L 209.362 94.027 Z  M 258.58 121.78 L 262.101 131.003 L 262.101 131.003 Q 260.173 132.428 257.364 133.141 L 257.364 133.141 L 257.364 133.141 Q 254.555 133.854 251.453 133.854 L 251.453 133.854 L 251.453 133.854 Q 243.404 133.854 239.002 129.745 L 239.002 129.745 L 239.002 129.745 Q 234.6 125.637 234.6 117.672 L 234.6 117.672 L 234.6 99.142 L 227.641 99.142 L 227.641 89.08 L 234.6 89.08 L 234.6 78.096 L 247.68 78.096 L 247.68 89.08 L 258.915 89.08 L 258.915 99.142 L 247.68 99.142 L 247.68 117.504 L 247.68 117.504 Q 247.68 120.355 249.147 121.906 L 249.147 121.906 L 249.147 121.906 Q 250.614 123.457 253.297 123.457 L 253.297 123.457 L 253.297 123.457 Q 256.4 123.457 258.58 121.78 L 258.58 121.78 Z  M 119.899 62.213 L 119.899 14.589 L 101.118 14.589 L 101.118 3.522 L 152.263 3.522 L 152.263 14.589 L 133.482 14.589 L 133.482 62.213 L 119.899 62.213 Z  M 186.053 16.434 L 186.053 16.434 Q 194.438 16.434 199.594 21.464 L 199.594 21.464 L 199.594 21.464 Q 204.751 26.495 204.751 36.389 L 204.751 36.389 L 204.751 62.213 L 191.671 62.213 L 191.671 38.401 L 191.671 38.401 Q 191.671 33.035 189.323 30.394 L 189.323 30.394 L 189.323 30.394 Q 186.976 27.753 182.532 27.753 L 182.532 27.753 L 182.532 27.753 Q 177.585 27.753 174.65 30.813 L 174.65 30.813 L 174.65 30.813 Q 171.716 33.874 171.716 39.91 L 171.716 39.91 L 171.716 62.213 L 158.636 62.213 L 158.636 0 L 171.716 0 L 171.716 21.8 L 171.716 21.8 Q 174.315 19.201 178.004 17.817 L 178.004 17.817 L 178.004 17.817 Q 181.693 16.434 186.053 16.434 L 186.053 16.434 Z  M 260.76 39.827 L 260.76 39.827 Q 260.76 40.078 260.508 43.348 L 260.508 43.348 L 226.383 43.348 L 226.383 43.348 Q 227.305 47.54 230.743 49.972 L 230.743 49.972 L 230.743 49.972 Q 234.181 52.403 239.295 52.403 L 239.295 52.403 L 239.295 52.403 Q 242.817 52.403 245.542 51.355 L 245.542 51.355 L 245.542 51.355 Q 248.267 50.307 250.614 48.043 L 250.614 48.043 L 257.573 55.59 L 257.573 55.59 Q 251.201 62.884 238.96 62.884 L 238.96 62.884 L 238.96 62.884 Q 231.33 62.884 225.461 59.908 L 225.461 59.908 L 225.461 59.908 Q 219.591 56.931 216.405 51.649 L 216.405 51.649 L 216.405 51.649 Q 213.219 46.367 213.219 39.659 L 213.219 39.659 L 213.219 39.659 Q 213.219 33.035 216.363 27.711 L 216.363 27.711 L 216.363 27.711 Q 219.508 22.387 224.999 19.41 L 224.999 19.41 L 224.999 19.41 Q 230.491 16.434 237.283 16.434 L 237.283 16.434 L 237.283 16.434 Q 243.907 16.434 249.273 19.284 L 249.273 19.284 L 249.273 19.284 Q 254.639 22.135 257.699 27.459 L 257.699 27.459 L 257.699 27.459 Q 260.76 32.784 260.76 39.827 L 260.76 39.827 Z  M 237.367 26.327 L 237.367 26.327 Q 232.923 26.327 229.904 28.843 L 229.904 28.843 L 229.904 28.843 Q 226.886 31.358 226.215 35.718 L 226.215 35.718 L 248.434 35.718 L 248.434 35.718 Q 247.764 31.442 244.745 28.885 L 244.745 28.885 L 244.745 28.885 Q 241.727 26.327 237.367 26.327 L 237.367 26.327 Z " fill-rule="evenodd" fill="rgb(189,195,199)"/></g></g></svg>